<svg xmlns="http://www.w3.org/2000/svg" xmlns:xlink="http://www.w3.org/1999/xlink" width="500" zoomAndPan="magnify" viewBox="0 0 375 374.999991" height="500" preserveAspectRatio="xMidYMid meet" version="1.0"><defs><g/><clipPath id="3799df77cd"><path d="M 7 105 L 315.523438 105 L 315.523438 228.578125 L 7 228.578125 Z M 7 105 " clip-rule="nonzero"/></clipPath><clipPath id="30b7f4a26e"><path d="M 7.339844 225.359375 C 23.242188 201.464844 25.847656 198.683594 29.0625 195.296875 C 32.367188 191.734375 36.015625 188.082031 39.925781 184.78125 C 44.097656 181.304688 48.527344 178.265625 53.394531 175.050781 C 58.867188 171.398438 65.644531 167.230469 71.382812 164.1875 C 76.332031 161.496094 81.113281 159.148438 85.542969 157.238281 C 89.28125 155.671875 92.410156 154.457031 96.144531 153.328125 C 100.230469 152.109375 106.660156 150.023438 109.351562 150.285156 C 110.570312 150.371094 110.832031 150.71875 111.871094 151.414062 C 114.304688 152.980469 118.5625 159.234375 122.214844 161.148438 C 125.082031 162.625 128.46875 162.796875 131.25 163.058594 C 133.421875 163.320312 134.8125 163.234375 137.246094 163.058594 C 141.15625 162.796875 146.109375 162.101562 152.453125 161.148438 C 163.226562 159.410156 184.253906 155.066406 195.8125 152.71875 C 203.457031 151.066406 207.453125 150.546875 214.925781 148.460938 C 225.617188 145.507812 243.082031 139.425781 253.335938 135.425781 C 260.460938 132.644531 263.933594 131.167969 270.972656 127.78125 C 281.921875 122.394531 306.945312 106.316406 312.335938 105.363281 C 313.550781 105.1875 314.246094 105.273438 314.679688 105.710938 C 315.113281 106.144531 315.203125 107.535156 314.941406 108.054688 C 314.765625 108.578125 313.984375 109.011719 313.378906 109.011719 C 312.855469 109.097656 311.988281 108.75 311.726562 108.316406 C 311.378906 107.707031 311.640625 105.882812 312.160156 105.449219 C 312.683594 105.101562 314.59375 105.449219 314.941406 106.058594 C 315.289062 106.578125 315.113281 107.707031 314.246094 108.835938 C 310.683594 113.269531 283.574219 125.957031 272.539062 131.34375 C 265.414062 134.820312 261.851562 136.382812 254.722656 139.078125 C 244.296875 143.160156 230.394531 148.375 215.796875 152.371094 C 197.460938 157.324219 166.875 162.796875 152.886719 165.144531 C 146.023438 166.273438 142.199219 167.054688 137.246094 167.230469 C 132.988281 167.402344 128.554688 167.230469 125.253906 166.621094 C 122.996094 166.273438 121.34375 165.839844 119.519531 164.882812 C 117.347656 163.667969 115.089844 161.40625 113.261719 159.582031 C 111.699219 157.933594 111.179688 155.152344 109.179688 154.457031 C 106.484375 153.5 101.273438 155.933594 97.535156 156.976562 C 93.972656 158.019531 90.84375 159.234375 87.28125 160.800781 C 82.9375 162.625 78.246094 164.882812 73.378906 167.578125 C 67.820312 170.617188 61.128906 174.703125 55.742188 178.265625 C 50.960938 181.394531 47.3125 183.652344 42.707031 187.648438 C 36.710938 192.949219 28.976562 200.945312 23.503906 207.980469 C 18.464844 214.414062 13.683594 226.316406 10.554688 228.054688 C 9.425781 228.664062 8.296875 228.574219 7.6875 228.140625 C 7.167969 227.707031 7.339844 225.359375 7.339844 225.359375 " clip-rule="nonzero"/></clipPath></defs><g clip-path="url(#3799df77cd)"><g clip-path="url(#30b7f4a26e)"><path fill="#ffd700" d="M 3.867188 101.886719 L 318.5625 101.886719 L 318.5625 231.617188 L 3.867188 231.617188 Z M 3.867188 101.886719 " fill-opacity="1" fill-rule="nonzero"/></g></g><g fill="#023047" fill-opacity="1"><g transform="translate(62.942633, 216.72443)"><g><path d="M 7.75 0.46875 C 4.789062 0.46875 3.3125 -1.03125 3.3125 -4.03125 L 3.3125 -32.1875 C 3.3125 -33.707031 3.6875 -34.867188 4.4375 -35.671875 C 5.195312 -36.484375 6.195312 -36.890625 7.4375 -36.890625 C 8.539062 -36.890625 9.394531 -36.679688 10 -36.265625 C 10.601562 -35.859375 11.300781 -35.171875 12.09375 -34.203125 L 27.03125 -15.546875 L 27.03125 -32.453125 C 27.03125 -35.410156 28.492188 -36.890625 31.421875 -36.890625 C 32.867188 -36.890625 33.960938 -36.5 34.703125 -35.71875 C 35.441406 -34.945312 35.8125 -33.859375 35.8125 -32.453125 L 35.8125 -3.828125 C 35.8125 -2.515625 35.460938 -1.46875 34.765625 -0.6875 C 34.078125 0.0820312 33.148438 0.46875 31.984375 0.46875 C 30.816406 0.46875 29.894531 0.257812 29.21875 -0.15625 C 28.550781 -0.570312 27.835938 -1.257812 27.078125 -2.21875 L 12.140625 -20.875 L 12.140625 -4.03125 C 12.140625 -1.03125 10.675781 0.46875 7.75 0.46875 Z M 7.75 0.46875 "/></g></g></g><g fill="#023047" fill-opacity="1"><g transform="translate(101.329959, 216.72443)"><g><path d="M 5.015625 0.46875 C 3.390625 0.46875 2.195312 -0.0820312 1.4375 -1.1875 C 0.6875 -2.289062 0.691406 -3.671875 1.453125 -5.328125 L 14.3125 -33.015625 C 14.9375 -34.359375 15.695312 -35.335938 16.59375 -35.953125 C 17.488281 -36.578125 18.535156 -36.890625 19.734375 -36.890625 C 20.910156 -36.890625 21.945312 -36.578125 22.84375 -35.953125 C 23.738281 -35.335938 24.492188 -34.359375 25.109375 -33.015625 L 37.984375 -5.328125 C 38.773438 -3.640625 38.804688 -2.25 38.078125 -1.15625 C 37.359375 -0.0703125 36.222656 0.46875 34.671875 0.46875 C 33.296875 0.46875 32.238281 0.160156 31.5 -0.453125 C 30.757812 -1.078125 30.09375 -2.082031 29.5 -3.46875 L 27.84375 -7.390625 L 11.578125 -7.390625 L 9.921875 -3.46875 C 9.296875 -2.082031 8.65625 -1.078125 8 -0.453125 C 7.351562 0.160156 6.359375 0.46875 5.015625 0.46875 Z M 19.640625 -26.5 L 14.671875 -14.671875 L 24.703125 -14.671875 L 19.734375 -26.5 Z M 19.640625 -26.5 "/></g></g></g><g fill="#023047" fill-opacity="1"><g transform="translate(139.975613, 216.72443)"><g><path d="M 21.703125 0.5625 C 17.671875 0.5625 14.207031 -0.207031 11.3125 -1.75 C 8.414062 -3.300781 6.203125 -5.488281 4.671875 -8.3125 C 3.140625 -11.144531 2.375 -14.453125 2.375 -18.234375 C 2.375 -22.023438 3.140625 -25.320312 4.671875 -28.125 C 6.203125 -30.9375 8.414062 -33.117188 11.3125 -34.671875 C 14.207031 -36.222656 17.671875 -37 21.703125 -37 C 23.285156 -37 24.925781 -36.816406 26.625 -36.453125 C 28.332031 -36.085938 29.84375 -35.546875 31.15625 -34.828125 C 32.125 -34.304688 32.796875 -33.648438 33.171875 -32.859375 C 33.546875 -32.066406 33.679688 -31.253906 33.578125 -30.421875 C 33.484375 -29.597656 33.1875 -28.859375 32.6875 -28.203125 C 32.1875 -27.554688 31.554688 -27.117188 30.796875 -26.890625 C 30.035156 -26.671875 29.207031 -26.785156 28.3125 -27.234375 C 26.28125 -28.234375 24.195312 -28.734375 22.0625 -28.734375 C 18.863281 -28.734375 16.453125 -27.828125 14.828125 -26.015625 C 13.210938 -24.203125 12.40625 -21.609375 12.40625 -18.234375 C 12.40625 -14.828125 13.210938 -12.21875 14.828125 -10.40625 C 16.453125 -8.601562 18.863281 -7.703125 22.0625 -7.703125 C 22.957031 -7.703125 23.921875 -7.8125 24.953125 -8.03125 C 25.984375 -8.257812 27 -8.613281 28 -9.09375 C 29.039062 -9.539062 29.960938 -9.660156 30.765625 -9.453125 C 31.578125 -9.242188 32.238281 -8.828125 32.75 -8.203125 C 33.269531 -7.585938 33.585938 -6.875 33.703125 -6.0625 C 33.828125 -5.257812 33.71875 -4.460938 33.375 -3.671875 C 33.03125 -2.878906 32.394531 -2.238281 31.46875 -1.75 C 30.257812 -1.03125 28.769531 -0.460938 27 -0.046875 C 25.226562 0.359375 23.460938 0.5625 21.703125 0.5625 Z M 21.703125 0.5625 "/></g></g></g><g fill="#023047" fill-opacity="1"><g transform="translate(174.746355, 216.72443)"><g><path d="M 8.0625 0.46875 C 6.539062 0.46875 5.367188 0.0546875 4.546875 -0.765625 C 3.722656 -1.597656 3.3125 -2.804688 3.3125 -4.390625 L 3.3125 -32.03125 C 3.3125 -33.613281 3.722656 -34.816406 4.546875 -35.640625 C 5.367188 -36.472656 6.539062 -36.890625 8.0625 -36.890625 C 9.570312 -36.890625 10.738281 -36.472656 11.5625 -35.640625 C 12.394531 -34.816406 12.8125 -33.613281 12.8125 -32.03125 L 12.8125 -22.375 L 27.84375 -22.375 L 27.84375 -32.03125 C 27.84375 -33.613281 28.253906 -34.816406 29.078125 -35.640625 C 29.910156 -36.472656 31.085938 -36.890625 32.609375 -36.890625 C 34.117188 -36.890625 35.28125 -36.472656 36.09375 -35.640625 C 36.90625 -34.816406 37.3125 -33.613281 37.3125 -32.03125 L 37.3125 -4.390625 C 37.3125 -2.804688 36.90625 -1.597656 36.09375 -0.765625 C 35.28125 0.0546875 34.117188 0.46875 32.609375 0.46875 C 31.054688 0.46875 29.875 0.0546875 29.0625 -0.765625 C 28.25 -1.597656 27.84375 -2.804688 27.84375 -4.390625 L 27.84375 -14.578125 L 12.8125 -14.578125 L 12.8125 -4.390625 C 12.8125 -2.804688 12.40625 -1.597656 11.59375 -0.765625 C 10.789062 0.0546875 9.613281 0.46875 8.0625 0.46875 Z M 8.0625 0.46875 "/></g></g></g><g fill="#023047" fill-opacity="1"><g transform="translate(214.580323, 216.72443)"><g><path d="M 8.0625 0.46875 C 6.539062 0.46875 5.367188 0.0546875 4.546875 -0.765625 C 3.722656 -1.597656 3.3125 -2.804688 3.3125 -4.390625 L 3.3125 -32.03125 C 3.3125 -33.613281 3.722656 -34.816406 4.546875 -35.640625 C 5.367188 -36.472656 6.539062 -36.890625 8.0625 -36.890625 C 9.570312 -36.890625 10.738281 -36.472656 11.5625 -35.640625 C 12.394531 -34.816406 12.8125 -33.613281 12.8125 -32.03125 L 12.8125 -22.375 L 27.84375 -22.375 L 27.84375 -32.03125 C 27.84375 -33.613281 28.253906 -34.816406 29.078125 -35.640625 C 29.910156 -36.472656 31.085938 -36.890625 32.609375 -36.890625 C 34.117188 -36.890625 35.28125 -36.472656 36.09375 -35.640625 C 36.90625 -34.816406 37.3125 -33.613281 37.3125 -32.03125 L 37.3125 -4.390625 C 37.3125 -2.804688 36.90625 -1.597656 36.09375 -0.765625 C 35.28125 0.0546875 34.117188 0.46875 32.609375 0.46875 C 31.054688 0.46875 29.875 0.0546875 29.0625 -0.765625 C 28.25 -1.597656 27.84375 -2.804688 27.84375 -4.390625 L 27.84375 -14.578125 L 12.8125 -14.578125 L 12.8125 -4.390625 C 12.8125 -2.804688 12.40625 -1.597656 11.59375 -0.765625 C 10.789062 0.0546875 9.613281 0.46875 8.0625 0.46875 Z M 8.0625 0.46875 "/></g></g></g><g fill="#023047" fill-opacity="1"><g transform="translate(254.414299, 216.72443)"><g><path d="M 8.0625 0.46875 C 6.539062 0.46875 5.367188 0.0546875 4.546875 -0.765625 C 3.722656 -1.597656 3.3125 -2.804688 3.3125 -4.390625 L 3.3125 -32.03125 C 3.3125 -33.613281 3.722656 -34.816406 4.546875 -35.640625 C 5.367188 -36.472656 6.539062 -36.890625 8.0625 -36.890625 C 9.570312 -36.890625 10.738281 -36.472656 11.5625 -35.640625 C 12.394531 -34.816406 12.8125 -33.613281 12.8125 -32.03125 L 12.8125 -4.390625 C 12.8125 -2.804688 12.40625 -1.597656 11.59375 -0.765625 C 10.789062 0.0546875 9.613281 0.46875 8.0625 0.46875 Z M 8.0625 0.46875 "/></g></g></g><g fill="#023047" fill-opacity="1"><g transform="translate(269.758775, 216.72443)"><g><path d="M 8.109375 0 C 6.554688 0 5.367188 -0.421875 4.546875 -1.265625 C 3.722656 -2.109375 3.3125 -3.289062 3.3125 -4.8125 L 3.3125 -31.671875 C 3.3125 -33.222656 3.722656 -34.410156 4.546875 -35.234375 C 5.367188 -36.066406 6.539062 -36.484375 8.0625 -36.484375 C 9.570312 -36.484375 10.738281 -36.066406 11.5625 -35.234375 C 12.394531 -34.410156 12.8125 -33.222656 12.8125 -31.671875 L 12.8125 -7.90625 L 25.421875 -7.90625 C 26.734375 -7.90625 27.738281 -7.5625 28.4375 -6.875 C 29.144531 -6.1875 29.5 -5.222656 29.5 -3.984375 C 29.5 -2.703125 29.144531 -1.71875 28.4375 -1.03125 C 27.738281 -0.34375 26.734375 0 25.421875 0 Z M 8.109375 0 "/></g></g></g><g fill="#023047" fill-opacity="1"><g transform="translate(299.207955, 216.72443)"><g><path d="M 8.109375 0.46875 C 6.597656 0.46875 5.421875 0.046875 4.578125 -0.796875 C 3.734375 -1.640625 3.3125 -2.851562 3.3125 -4.4375 L 3.3125 -31.515625 C 3.3125 -34.785156 4.960938 -36.421875 8.265625 -36.421875 L 25.46875 -36.421875 C 27.945312 -36.421875 29.1875 -35.21875 29.1875 -32.8125 C 29.1875 -30.332031 27.945312 -29.09375 25.46875 -29.09375 L 12.8125 -29.09375 L 12.8125 -21.75 L 24.34375 -21.75 C 26.820312 -21.75 28.0625 -20.546875 28.0625 -18.140625 C 28.0625 -15.691406 26.820312 -14.46875 24.34375 -14.46875 L 12.8125 -14.46875 L 12.8125 -4.4375 C 12.8125 -1.164062 11.242188 0.46875 8.109375 0.46875 Z M 8.109375 0.46875 "/></g></g></g><g fill="#023047" fill-opacity="1"><g transform="translate(328.347145, 216.72443)"><g><path d="M 8.265625 0 C 4.960938 0 3.3125 -1.632812 3.3125 -4.90625 L 3.3125 -31.515625 C 3.3125 -34.785156 4.960938 -36.421875 8.265625 -36.421875 L 25.78125 -36.421875 C 28.257812 -36.421875 29.5 -35.21875 29.5 -32.8125 C 29.5 -30.332031 28.257812 -29.09375 25.78125 -29.09375 L 12.40625 -29.09375 L 12.40625 -22.171875 L 24.640625 -22.171875 C 27.128906 -22.171875 28.375 -20.945312 28.375 -18.5 C 28.375 -16.050781 27.128906 -14.828125 24.640625 -14.828125 L 12.40625 -14.828125 L 12.40625 -7.34375 L 25.78125 -7.34375 C 28.257812 -7.34375 29.5 -6.117188 29.5 -3.671875 C 29.5 -1.222656 28.257812 0 25.78125 0 Z M 8.265625 0 "/></g></g></g><g fill="#023047" fill-opacity="1"><g transform="translate(359.301719, 216.72443)"><g/></g></g><path stroke-linecap="butt" transform="matrix(0.638211, 0, 0, 0.638211, 279.071177, 152.769672)" fill="none" stroke-linejoin="miter" d="M 43.522389 28.999288 C 43.014377 28.999288 42.579813 28.815669 42.212575 28.454552 C 41.851459 28.087315 41.66784 27.652751 41.66784 27.144739 L 41.66784 9.652001 C 41.66784 9.278643 41.796373 8.960371 42.047319 8.697184 C 42.304385 8.433997 42.622657 8.299344 42.996015 8.299344 C 43.363252 8.299344 43.681525 8.433997 43.944711 8.697184 C 44.214019 8.960371 44.348673 9.278643 44.348673 9.652001 L 44.348673 26.318455 L 53.976411 26.318455 C 54.349769 26.318455 54.668041 26.453109 54.931228 26.722416 C 55.200536 26.985603 55.335189 27.303875 55.335189 27.677233 C 55.335189 28.050591 55.200536 28.362743 54.931228 28.619809 C 54.668041 28.870755 54.349769 28.999288 53.976411 28.999288 Z M 62.924761 10.91897 C 62.514679 10.91897 62.159683 10.772075 61.865893 10.478285 C 61.572103 10.184495 61.425208 9.829499 61.425208 9.413297 L 61.425208 9.297005 C 61.425208 8.886923 61.572103 8.538048 61.865893 8.244258 C 62.159683 7.944348 62.514679 7.797453 62.924761 7.797453 L 63.102259 7.797453 C 63.51234 7.797453 63.867336 7.944348 64.155006 8.244258 C 64.454916 8.538048 64.601811 8.886923 64.601811 9.297005 L 64.601811 9.413297 C 64.601811 9.829499 64.454916 10.184495 64.155006 10.478285 C 63.867336 10.772075 63.51234 10.91897 63.102259 10.91897 Z M 62.985967 29.146183 C 62.612609 29.146183 62.294337 29.017649 62.043391 28.760583 C 61.786325 28.509638 61.663912 28.197486 61.663912 27.818008 L 61.663912 15.191164 C 61.663912 14.811686 61.786325 14.493413 62.043391 14.230227 C 62.294337 13.96704 62.612609 13.838507 62.985967 13.838507 C 63.377687 13.838507 63.70208 13.960919 63.953025 14.217985 C 64.210091 14.468931 64.338624 14.793324 64.338624 15.191164 L 64.338624 27.818008 C 64.338624 28.197486 64.203971 28.509638 63.940784 28.760583 C 63.677597 29.017649 63.359325 29.146183 62.985967 29.146183 Z M 79.560611 36.068606 C 78.422176 36.068606 77.271499 35.921711 76.114701 35.621801 C 74.957904 35.328011 74.009207 34.966894 73.262491 34.538451 C 72.907495 34.318108 72.729997 33.975353 72.729997 33.510186 C 72.729997 33.191914 72.840168 32.910365 73.066631 32.66554 C 73.293094 32.420715 73.574643 32.298303 73.905157 32.298303 C 74.064293 32.298303 74.241791 32.341147 74.437651 32.414595 C 75.931083 33.161311 77.553047 33.534669 79.297425 33.534669 C 82.30265 33.534669 83.802203 31.937186 83.802203 28.736101 L 83.802203 26.765261 C 82.406701 28.252572 80.72965 28.999288 78.764931 28.999288 C 77.608133 28.999288 76.481939 28.711618 75.398588 28.130159 C 74.309118 27.5487 73.409386 26.685692 72.699394 25.541136 C 71.995523 24.390459 71.640526 22.988837 71.640526 21.342389 C 71.640526 19.695942 71.995523 18.29432 72.699394 17.149763 C 73.409386 15.999086 74.309118 15.136079 75.398588 14.554619 C 76.481939 13.97316 77.608133 13.685491 78.764931 13.685491 C 80.72965 13.685491 82.406701 14.432207 83.802203 15.919518 L 83.802203 15.191164 C 83.802203 14.811686 83.924615 14.493413 84.181681 14.230227 C 84.438747 13.96704 84.75702 13.838507 85.130378 13.838507 C 85.497615 13.838507 85.815887 13.96704 86.079074 14.230227 C 86.348381 14.493413 86.483035 14.811686 86.483035 15.191164 L 86.483035 28.350502 C 86.483035 30.823233 85.883214 32.726746 84.683572 34.061042 C 83.48393 35.401458 81.776277 36.068606 79.560611 36.068606 Z M 79.328028 26.557159 C 80.246121 26.557159 81.060164 26.361299 81.764035 25.963459 C 82.474028 25.571739 83.153417 25.045366 83.802203 24.378218 L 83.802203 18.306561 C 83.153417 17.639413 82.474028 17.11304 81.764035 16.72132 C 81.060164 16.323479 80.246121 16.127619 79.328028 16.127619 C 77.852958 16.127619 76.647195 16.580545 75.71074 17.474156 C 74.780406 18.367767 74.315238 19.653098 74.315238 21.342389 C 74.315238 23.031681 74.780406 24.323132 75.71074 25.216743 C 76.647195 26.110354 77.852958 26.557159 79.328028 26.557159 Z M 96.018964 29.146183 C 95.645606 29.146183 95.327334 29.017649 95.076388 28.760583 C 94.819322 28.509638 94.69691 28.197486 94.69691 27.818008 L 94.69691 8.709425 C 94.69691 8.336067 94.819322 8.017795 95.076388 7.754608 C 95.327334 7.485301 95.645606 7.350647 96.018964 7.350647 C 96.392322 7.350647 96.710595 7.485301 96.973781 7.754608 C 97.236968 8.017795 97.371622 8.336067 97.371622 8.709425 L 97.371622 16.396927 C 98.118338 15.570643 98.920139 14.915736 99.783147 14.426086 C 100.646155 13.930316 101.668298 13.685491 102.849579 13.685491 C 103.926808 13.685491 104.863263 13.942557 105.658944 14.45669 C 106.454625 14.964701 107.060567 15.662452 107.482889 16.549942 C 107.905212 17.431312 108.119434 18.39837 108.119434 19.457238 L 108.119434 27.818008 C 108.119434 28.197486 107.98478 28.509638 107.721594 28.760583 C 107.458407 29.017649 107.140135 29.146183 106.766777 29.146183 C 106.393419 29.146183 106.081267 29.017649 105.824201 28.760583 C 105.573255 28.509638 105.444722 28.197486 105.444722 27.818008 L 105.444722 19.751028 C 105.444722 17.357864 104.361372 16.158222 102.200793 16.158222 C 101.215372 16.158222 100.340123 16.415289 99.562804 16.929421 C 98.791606 17.437432 98.057131 18.122942 97.371622 18.98595 L 97.371622 27.818008 C 97.371622 28.197486 97.236968 28.509638 96.973781 28.760583 C 96.710595 29.017649 96.392322 29.146183 96.018964 29.146183 Z M 121.36446 29.293077 C 118.493889 29.293077 117.061663 27.995506 117.061663 25.406482 L 117.061663 16.280635 L 114.980651 16.280635 C 114.821515 16.280635 114.686862 16.225549 114.57669 16.115378 C 114.47264 16.005207 114.417554 15.870553 114.417554 15.717538 C 114.417554 15.521678 114.503243 15.356421 114.680741 15.215647 L 118.689748 11.298449 C 118.867247 11.12095 119.032503 11.035262 119.185519 11.035262 C 119.344655 11.035262 119.473188 11.090347 119.577239 11.21276 C 119.68741 11.329052 119.742495 11.469826 119.742495 11.622841 L 119.742495 13.979281 L 123.072114 13.979281 C 123.408748 13.979281 123.684176 14.089452 123.898398 14.303674 C 124.11874 14.517896 124.222791 14.793324 124.222791 15.129958 C 124.222791 15.44211 124.11874 15.711417 123.898398 15.944001 C 123.684176 16.170464 123.408748 16.280635 123.072114 16.280635 L 119.742495 16.280635 L 119.742495 25.173899 C 119.742495 25.938977 119.926114 26.422506 120.293351 26.624486 C 120.654468 26.832587 121.113515 26.936638 121.65825 26.936638 C 122.04997 26.936638 122.44169 26.881552 122.83341 26.765261 C 122.919098 26.746899 122.998666 26.728537 123.090476 26.704054 C 123.176164 26.679572 123.292456 26.673451 123.42711 26.673451 C 123.702538 26.673451 123.953483 26.771381 124.167705 26.979482 C 124.381927 27.187583 124.492098 27.438529 124.492098 27.732319 C 124.492098 28.185245 124.259515 28.528 123.806589 28.760583 C 123.047631 29.115579 122.227468 29.293077 121.36446 29.293077 Z M 121.36446 29.293077 " stroke="#806c00" stroke-width="3.644772" stroke-opacity="1" stroke-miterlimit="4"/><g fill="#ffd700" fill-opacity="1"><g transform="translate(303.841752, 171.277798)"><g><path d="M 3 0 C 2.675781 0 2.398438 -0.113281 2.171875 -0.34375 C 1.941406 -0.582031 1.828125 -0.863281 1.828125 -1.1875 L 1.828125 -12.34375 C 1.828125 -12.582031 1.90625 -12.785156 2.0625 -12.953125 C 2.226562 -13.128906 2.429688 -13.21875 2.671875 -13.21875 C 2.910156 -13.21875 3.113281 -13.128906 3.28125 -12.953125 C 3.445312 -12.785156 3.53125 -12.582031 3.53125 -12.34375 L 3.53125 -1.703125 L 9.6875 -1.703125 C 9.914062 -1.703125 10.113281 -1.617188 10.28125 -1.453125 C 10.457031 -1.285156 10.546875 -1.082031 10.546875 -0.84375 C 10.546875 -0.601562 10.457031 -0.398438 10.28125 -0.234375 C 10.113281 -0.078125 9.914062 0 9.6875 0 Z M 3 0 "/></g></g></g><g fill="#ffd700" fill-opacity="1"><g transform="translate(316.93772, 171.277798)"><g><path d="M 2.296875 -11.546875 C 2.035156 -11.546875 1.804688 -11.640625 1.609375 -11.828125 C 1.421875 -12.015625 1.328125 -12.238281 1.328125 -12.5 L 1.328125 -12.578125 C 1.328125 -12.835938 1.421875 -13.0625 1.609375 -13.25 C 1.804688 -13.4375 2.035156 -13.53125 2.296875 -13.53125 L 2.40625 -13.53125 C 2.664062 -13.53125 2.890625 -13.4375 3.078125 -13.25 C 3.265625 -13.0625 3.359375 -12.835938 3.359375 -12.578125 L 3.359375 -12.5 C 3.359375 -12.238281 3.265625 -12.015625 3.078125 -11.828125 C 2.890625 -11.640625 2.664062 -11.546875 2.40625 -11.546875 Z M 2.328125 0.09375 C 2.085938 0.09375 1.882812 0.015625 1.71875 -0.140625 C 1.5625 -0.304688 1.484375 -0.507812 1.484375 -0.75 L 1.484375 -8.8125 C 1.484375 -9.050781 1.5625 -9.253906 1.71875 -9.421875 C 1.882812 -9.597656 2.085938 -9.6875 2.328125 -9.6875 C 2.578125 -9.6875 2.785156 -9.601562 2.953125 -9.4375 C 3.117188 -9.269531 3.203125 -9.0625 3.203125 -8.8125 L 3.203125 -0.75 C 3.203125 -0.507812 3.113281 -0.304688 2.9375 -0.140625 C 2.769531 0.015625 2.566406 0.09375 2.328125 0.09375 Z M 2.328125 0.09375 "/></g></g></g><g fill="#ffd700" fill-opacity="1"><g transform="translate(323.890213, 171.277798)"><g><path d="M 5.953125 4.515625 C 5.234375 4.515625 4.503906 4.421875 3.765625 4.234375 C 3.023438 4.046875 2.414062 3.8125 1.9375 3.53125 C 1.707031 3.394531 1.59375 3.175781 1.59375 2.875 C 1.59375 2.675781 1.664062 2.5 1.8125 2.34375 C 1.957031 2.1875 2.132812 2.109375 2.34375 2.109375 C 2.445312 2.109375 2.5625 2.132812 2.6875 2.1875 C 3.632812 2.65625 4.671875 2.890625 5.796875 2.890625 C 7.710938 2.890625 8.671875 1.867188 8.671875 -0.171875 L 8.671875 -1.421875 C 7.773438 -0.472656 6.703125 0 5.453125 0 C 4.710938 0 3.992188 -0.179688 3.296875 -0.546875 C 2.597656 -0.921875 2.023438 -1.472656 1.578125 -2.203125 C 1.128906 -2.941406 0.90625 -3.835938 0.90625 -4.890625 C 0.90625 -5.941406 1.128906 -6.832031 1.578125 -7.5625 C 2.023438 -8.300781 2.597656 -8.851562 3.296875 -9.21875 C 3.992188 -9.59375 4.710938 -9.78125 5.453125 -9.78125 C 6.703125 -9.78125 7.773438 -9.300781 8.671875 -8.34375 L 8.671875 -8.8125 C 8.671875 -9.050781 8.75 -9.253906 8.90625 -9.421875 C 9.070312 -9.597656 9.273438 -9.6875 9.515625 -9.6875 C 9.753906 -9.6875 9.957031 -9.597656 10.125 -9.421875 C 10.289062 -9.253906 10.375 -9.050781 10.375 -8.8125 L 10.375 -0.40625 C 10.375 1.164062 9.988281 2.378906 9.21875 3.234375 C 8.457031 4.085938 7.367188 4.515625 5.953125 4.515625 Z M 5.8125 -1.5625 C 6.394531 -1.5625 6.910156 -1.6875 7.359375 -1.9375 C 7.816406 -2.1875 8.253906 -2.523438 8.671875 -2.953125 L 8.671875 -6.828125 C 8.253906 -7.253906 7.816406 -7.59375 7.359375 -7.84375 C 6.910156 -8.09375 6.394531 -8.21875 5.8125 -8.21875 C 4.875 -8.21875 4.101562 -7.929688 3.5 -7.359375 C 2.90625 -6.785156 2.609375 -5.960938 2.609375 -4.890625 C 2.609375 -3.804688 2.90625 -2.976562 3.5 -2.40625 C 4.101562 -1.84375 4.875 -1.5625 5.8125 -1.5625 Z M 5.8125 -1.5625 "/></g></g></g><g fill="#ffd700" fill-opacity="1"><g transform="translate(338.019487, 171.277798)"><g><path d="M 2.328125 0.09375 C 2.085938 0.09375 1.882812 0.015625 1.71875 -0.140625 C 1.5625 -0.304688 1.484375 -0.507812 1.484375 -0.75 L 1.484375 -12.953125 C 1.484375 -13.191406 1.5625 -13.394531 1.71875 -13.5625 C 1.882812 -13.726562 2.085938 -13.8125 2.328125 -13.8125 C 2.566406 -13.8125 2.769531 -13.726562 2.9375 -13.5625 C 3.113281 -13.394531 3.203125 -13.191406 3.203125 -12.953125 L 3.203125 -8.046875 C 3.671875 -8.566406 4.179688 -8.984375 4.734375 -9.296875 C 5.285156 -9.617188 5.9375 -9.78125 6.6875 -9.78125 C 7.375 -9.78125 7.972656 -9.613281 8.484375 -9.28125 C 8.992188 -8.957031 9.382812 -8.515625 9.65625 -7.953125 C 9.925781 -7.390625 10.0625 -6.769531 10.0625 -6.09375 L 10.0625 -0.75 C 10.0625 -0.507812 9.972656 -0.304688 9.796875 -0.140625 C 9.628906 0.015625 9.425781 0.09375 9.1875 0.09375 C 8.945312 0.09375 8.742188 0.015625 8.578125 -0.140625 C 8.421875 -0.304688 8.34375 -0.507812 8.34375 -0.75 L 8.34375 -5.90625 C 8.34375 -7.4375 7.65625 -8.203125 6.28125 -8.203125 C 5.65625 -8.203125 5.09375 -8.035156 4.59375 -7.703125 C 4.101562 -7.378906 3.640625 -6.941406 3.203125 -6.390625 L 3.203125 -0.75 C 3.203125 -0.507812 3.113281 -0.304688 2.9375 -0.140625 C 2.769531 0.015625 2.566406 0.09375 2.328125 0.09375 Z M 2.328125 0.09375 "/></g></g></g><g fill="#ffd700" fill-opacity="1"><g transform="translate(351.735434, 171.277798)"><g><path d="M 4.796875 0.1875 C 2.960938 0.1875 2.046875 -0.640625 2.046875 -2.296875 L 2.046875 -8.125 L 0.71875 -8.125 C 0.613281 -8.125 0.523438 -8.15625 0.453125 -8.21875 C 0.390625 -8.289062 0.359375 -8.378906 0.359375 -8.484375 C 0.359375 -8.609375 0.414062 -8.710938 0.53125 -8.796875 L 3.078125 -11.296875 C 3.191406 -11.410156 3.300781 -11.46875 3.40625 -11.46875 C 3.5 -11.46875 3.582031 -11.425781 3.65625 -11.34375 C 3.726562 -11.269531 3.765625 -11.1875 3.765625 -11.09375 L 3.765625 -9.59375 L 5.890625 -9.59375 C 6.097656 -9.59375 6.269531 -9.519531 6.40625 -9.375 C 6.539062 -9.238281 6.609375 -9.066406 6.609375 -8.859375 C 6.609375 -8.648438 6.539062 -8.472656 6.40625 -8.328125 C 6.269531 -8.191406 6.097656 -8.125 5.890625 -8.125 L 3.765625 -8.125 L 3.765625 -2.4375 C 3.765625 -1.945312 3.878906 -1.632812 4.109375 -1.5 C 4.335938 -1.375 4.628906 -1.3125 4.984375 -1.3125 C 5.234375 -1.3125 5.484375 -1.347656 5.734375 -1.421875 C 5.785156 -1.441406 5.835938 -1.457031 5.890625 -1.46875 C 5.953125 -1.476562 6.023438 -1.484375 6.109375 -1.484375 C 6.285156 -1.484375 6.441406 -1.414062 6.578125 -1.28125 C 6.710938 -1.15625 6.78125 -1 6.78125 -0.8125 C 6.78125 -0.519531 6.640625 -0.300781 6.359375 -0.15625 C 5.867188 0.0703125 5.347656 0.1875 4.796875 0.1875 Z M 4.796875 0.1875 "/></g></g></g></svg>